<svg xmlns="http://www.w3.org/2000/svg" width="708.75" viewBox="0 0 708.75 567" height="567" version="1.0"><defs><clipPath id="a"><path d="M 0.5 0 L 708 0 L 708 566 L 0.5 566 Z M 0.5 0"/></clipPath><clipPath id="b"><path d="M 50 42 L 101 42 L 101 98 L 50 98 Z M 50 42"/></clipPath><clipPath id="c"><path d="M 90.195312 31.535156 L 104.890625 98.085938 L 61.742188 107.613281 L 47.046875 41.0625 Z M 90.195312 31.535156"/></clipPath><clipPath id="d"><path d="M 90.195312 31.535156 L 104.890625 98.085938 L 61.742188 107.613281 L 47.046875 41.0625 Z M 90.195312 31.535156"/></clipPath><clipPath id="e"><path d="M 600 460 L 693 460 L 693 555 L 600 555 Z M 600 460"/></clipPath><clipPath id="f"><path d="M 626.597656 566.128906 L 576.214844 507.714844 L 657.882812 437.273438 L 708.265625 495.691406 Z M 626.597656 566.128906"/></clipPath><clipPath id="g"><path d="M 626.597656 566.128906 L 576.214844 507.714844 L 657.882812 437.273438 L 708.265625 495.691406 Z M 626.597656 566.128906"/></clipPath><clipPath id="h"><path d="M 534 76 L 658 76 L 658 130 L 534 130 Z M 534 76"/></clipPath><clipPath id="i"><path d="M 611.507812 56.613281 L 658.972656 113.578125 L 578.417969 180.699219 L 530.953125 123.734375 Z M 611.507812 56.613281"/></clipPath><clipPath id="j"><path d="M 611.507812 56.613281 L 658.972656 113.578125 L 578.417969 180.699219 L 530.953125 123.734375 Z M 611.507812 56.613281"/></clipPath><clipPath id="k"><path d="M 31.613281 474.007812 L 134.964844 474.007812 L 134.964844 545.160156 L 31.613281 545.160156 Z M 31.613281 474.007812"/></clipPath></defs><g clip-path="url(#a)" fill="#FFF"><path d="M 0.5 0 L 708.25 0 L 708.25 573.691406 L 0.5 573.691406 Z M 0.5 0"/><path d="M 0.5 0 L 708.25 0 L 708.25 566.203125 L 0.5 566.203125 Z M 0.5 0"/><path d="M 0.5 0 L 708.25 0 L 708.25 566.203125 L 0.5 566.203125 Z M 0.5 0"/></g><g clip-path="url(#b)"><g clip-path="url(#c)"><g clip-path="url(#d)"><path fill="#EE193B" d="M 99.71875 96.484375 C 99.992188 96.09375 100.105469 95.59375 100.335938 95.226562 C 100.722656 94.613281 100.609375 94.179688 100.246094 93.699219 C 98.027344 90.789062 95.648438 88.023438 93.097656 85.40625 C 92.761719 85.058594 92.394531 84.738281 92.042969 84.410156 C 91.859375 84.242188 91.734375 84.304688 91.519531 84.4375 C 91.066406 84.714844 91.039062 85.21875 90.785156 85.589844 C 90.316406 86.273438 90.359375 86.425781 90.957031 87.074219 C 92.078125 88.296875 93.183594 89.539062 94.230469 90.828125 C 94.386719 91.023438 94.628906 91.175781 94.628906 91.496094 C 94.324219 91.375 94.046875 91.261719 93.765625 91.148438 C 90.648438 89.867188 87.5 88.6875 84.273438 87.734375 C 83.152344 87.402344 82.035156 87.042969 80.871094 86.90625 C 80.75 86.765625 80.601562 86.78125 80.449219 86.8125 C 79.894531 86.570312 79.308594 86.496094 78.71875 86.453125 C 78.601562 86.320312 78.460938 86.328125 78.3125 86.375 C 78.203125 86.273438 78.074219 86.238281 77.933594 86.296875 C 75.34375 85.707031 72.707031 85.613281 69.871094 85.523438 C 71.199219 84.734375 72.429688 84.199219 73.65625 83.671875 C 76.109375 82.628906 78.660156 81.871094 81.210938 81.132812 C 81.976562 80.914062 82.359375 80.425781 82.5625 79.757812 C 82.730469 79.214844 82.773438 78.628906 82.867188 78.0625 C 82.90625 77.796875 82.792969 77.59375 82.59375 77.429688 C 80.792969 76.855469 78.980469 76.320312 77.21875 75.621094 C 77.066406 75.664062 76.941406 75.621094 76.835938 75.503906 C 76.75 75.546875 76.671875 75.542969 76.621094 75.445312 C 76.566406 75.425781 76.503906 75.40625 76.449219 75.390625 C 76.355469 75.433594 76.28125 75.421875 76.226562 75.320312 C 75.894531 75.3125 75.589844 75.175781 75.277344 75.070312 C 74.792969 74.996094 74.316406 74.894531 73.875 74.679688 C 73.816406 74.699219 73.765625 74.695312 73.714844 74.660156 C 73.496094 74.644531 73.273438 74.640625 73.089844 74.484375 C 73.035156 74.503906 72.984375 74.496094 72.933594 74.464844 C 72.710938 74.453125 72.484375 74.453125 72.296875 74.292969 C 72.242188 74.3125 72.195312 74.304688 72.148438 74.269531 C 71.476562 74.175781 70.808594 74.082031 70.171875 73.828125 C 69.980469 73.867188 69.800781 73.8125 69.628906 73.722656 C 69.480469 73.78125 69.355469 73.734375 69.242188 73.640625 C 69.09375 73.6875 68.957031 73.675781 68.839844 73.554688 C 67.925781 73.484375 67.03125 73.292969 66.15625 73.019531 C 66.007812 73.066406 65.871094 73.058594 65.757812 72.933594 C 65.605469 72.976562 65.457031 72.976562 65.339844 72.847656 C 63.628906 72.625 61.960938 72.195312 60.269531 71.824219 C 60.402344 71.496094 60.652344 71.371094 60.859375 71.203125 C 61.8125 70.425781 62.8125 69.71875 63.84375 69.050781 C 66.15625 67.554688 68.585938 66.261719 70.996094 64.941406 C 72.074219 64.351562 72.464844 63.511719 72.269531 62.328125 C 72.503906 62.085938 72.257812 61.835938 72.277344 61.585938 L 72.285156 61.574219 C 72.425781 61.429688 72.414062 61.308594 72.226562 61.214844 C 72.199219 61.066406 72.152344 60.929688 71.992188 60.871094 C 71.960938 60.753906 71.878906 60.710938 71.765625 60.722656 C 70.835938 60.257812 69.832031 60.082031 68.824219 59.910156 C 68.707031 59.785156 68.566406 59.773438 68.414062 59.8125 C 68.183594 59.65625 67.917969 59.628906 67.652344 59.601562 C 67.589844 59.519531 67.511719 59.484375 67.410156 59.523438 C 67.371094 59.488281 67.320312 59.476562 67.269531 59.492188 C 67.203125 59.402344 67.117188 59.371094 67.011719 59.410156 L 67 59.410156 C 66.898438 59.292969 66.777344 59.246094 66.625 59.289062 C 66.527344 59.15625 66.398438 59.128906 66.25 59.160156 C 66.199219 59.0625 66.117188 59.042969 66.019531 59.082031 C 65.980469 59.046875 65.9375 59.035156 65.886719 59.046875 C 65.824219 58.945312 65.734375 58.925781 65.628906 58.960938 L 65.613281 58.964844 C 65.503906 58.867188 65.382812 58.808594 65.230469 58.855469 C 63.714844 58.40625 62.183594 58.007812 60.609375 57.808594 C 60.578125 57.804688 60.546875 57.796875 60.511719 57.789062 C 58.929688 57.476562 57.34375 57.167969 55.761719 56.855469 C 55.59375 56.738281 55.476562 56.632812 55.722656 56.457031 C 56.183594 56.128906 56.625 55.773438 57.082031 55.4375 C 59.402344 53.746094 61.835938 52.234375 64.25 50.691406 C 65.054688 50.179688 65.523438 49.5625 65.371094 48.566406 C 65.367188 47.941406 65.445312 47.296875 64.980469 46.769531 C 64.984375 46.769531 64.984375 46.773438 64.984375 46.773438 C 64.945312 46.664062 64.867188 46.625 64.757812 46.636719 C 64.59375 46.46875 64.386719 46.390625 64.15625 46.382812 C 63.859375 46.167969 63.53125 46.054688 63.167969 46.019531 C 62.863281 45.820312 62.527344 45.707031 62.167969 45.679688 L 62.171875 45.679688 C 60.28125 44.855469 58.359375 44.140625 56.351562 43.671875 C 56.105469 43.527344 55.847656 43.441406 55.566406 43.460938 C 54.621094 43.113281 53.648438 42.925781 52.65625 42.796875 C 52.171875 42.554688 51.632812 42.582031 51.121094 42.472656 C 50.789062 42.398438 50.582031 42.574219 50.507812 42.90625 C 50.429688 43.222656 50.636719 43.382812 50.84375 43.546875 C 50.804688 43.691406 50.769531 43.835938 50.730469 43.984375 C 50.582031 44.371094 50.730469 44.640625 51.089844 44.777344 C 51.367188 44.882812 51.660156 44.945312 51.953125 45.011719 C 55.460938 45.804688 58.839844 46.996094 62.167969 48.355469 L 62.265625 48.707031 L 62.265625 48.710938 C 61.191406 49.085938 60.304688 49.796875 59.335938 50.359375 C 59.039062 50.535156 58.691406 50.660156 58.519531 51.003906 C 57.085938 51.929688 55.710938 52.941406 54.351562 53.972656 C 53.824219 54.375 53.332031 54.8125 52.890625 55.304688 C 52.597656 55.632812 52.355469 56.015625 52.433594 56.445312 C 52.488281 56.757812 52.425781 57.015625 52.398438 57.304688 C 52.351562 57.722656 52.359375 58.140625 52.449219 58.5625 C 52.59375 59.199219 52.941406 59.589844 53.558594 59.738281 C 53.996094 59.839844 54.433594 59.941406 54.875 60.027344 C 59.082031 60.835938 63.269531 61.75 67.417969 62.84375 C 67.699219 62.917969 68.015625 62.917969 68.25 63.148438 C 65.171875 65 62.28125 67.117188 59.433594 69.292969 C 58.75 69.335938 58.449219 69.933594 58 70.308594 C 57.828125 70.453125 57.648438 70.648438 57.746094 70.933594 C 57.699219 71.042969 57.648438 71.152344 57.609375 71.265625 C 56.988281 73.09375 57.558594 74.191406 59.382812 74.652344 C 61.53125 75.199219 63.691406 75.683594 65.871094 76.074219 C 69.527344 76.730469 73.160156 77.472656 76.691406 78.660156 C 76.976562 78.757812 77.3125 78.773438 77.566406 79.070312 C 75.753906 79.695312 74.039062 80.398438 72.347656 81.164062 C 70.492188 82.003906 68.660156 82.878906 67.03125 84.125 C 66.105469 84.832031 65.78125 86.019531 66.15625 87.183594 C 66.027344 87.835938 66.027344 87.835938 66.703125 87.988281 C 67.203125 88.25 67.75 88.195312 68.28125 88.21875 C 70.554688 88.324219 72.824219 88.367188 75.085938 88.679688 C 80.625 89.449219 85.882812 91.207031 91.027344 93.359375 C 91.109375 93.394531 91.191406 93.4375 91.1875 93.582031 C 91.054688 93.601562 90.910156 93.632812 90.769531 93.644531 C 89.21875 93.808594 87.691406 94.085938 86.179688 94.488281 C 84.972656 94.808594 84.53125 95.742188 84.097656 96.699219 C 83.839844 97.261719 84 97.398438 84.601562 97.304688 C 86.972656 96.925781 89.359375 96.773438 91.765625 96.765625 C 93.863281 96.757812 95.957031 96.886719 98.03125 97.210938 C 98.796875 97.328125 99.304688 97.070312 99.71875 96.484375 Z M 57.824219 45.375 C 57.828125 45.378906 57.832031 45.378906 57.835938 45.378906 L 57.832031 45.378906 C 57.832031 45.378906 57.828125 45.378906 57.824219 45.375 Z M 51.789062 43.914062 C 51.792969 43.914062 51.789062 43.914062 51.789062 43.914062 Z M 63.03125 47.210938 C 63.042969 47.128906 63.082031 47.078125 63.136719 47.046875 C 63.191406 47.015625 63.257812 47 63.316406 46.976562 C 63.339844 46.976562 63.359375 46.972656 63.378906 46.972656 C 63.421875 46.96875 63.457031 46.96875 63.5 46.964844 C 63.5625 47.058594 63.664062 47.109375 63.765625 47.152344 C 63.777344 47.160156 63.789062 47.164062 63.800781 47.167969 C 63.949219 47.234375 64.101562 47.296875 64.164062 47.476562 C 64.023438 47.664062 63.84375 47.582031 63.675781 47.554688 C 63.460938 47.4375 63.246094 47.324219 63.03125 47.210938 Z M 70.917969 61.34375 C 70.273438 61.167969 69.628906 60.992188 68.980469 60.816406 C 68.617188 60.78125 68.269531 60.6875 67.9375 60.53125 C 67.796875 60.550781 67.667969 60.535156 67.570312 60.414062 C 67.519531 60.433594 67.46875 60.425781 67.421875 60.394531 C 67.246094 60.367188 67.0625 60.34375 66.882812 60.316406 C 66.855469 60.3125 66.835938 60.308594 66.820312 60.296875 C 66.839844 60.304688 66.863281 60.308594 66.882812 60.316406 C 66.878906 60.296875 66.871094 60.277344 66.859375 60.261719 C 66.84375 60.238281 66.824219 60.214844 66.796875 60.199219 C 66.742188 60.203125 66.6875 60.21875 66.636719 60.246094 C 66.4375 60.140625 66.183594 60.1875 66.011719 60.011719 C 65.957031 60.023438 65.90625 60.03125 65.851562 60.03125 C 65.828125 59.992188 65.808594 59.953125 65.789062 59.914062 C 65.789062 59.90625 65.785156 59.90625 65.785156 59.902344 C 65.679688 59.914062 65.574219 59.925781 65.46875 59.933594 C 65.292969 59.890625 65.117188 59.851562 64.941406 59.808594 C 64.933594 59.753906 64.90625 59.707031 64.863281 59.671875 C 64.835938 59.683594 64.8125 59.691406 64.785156 59.699219 C 64.75 59.714844 64.71875 59.726562 64.683594 59.738281 C 64.554688 59.691406 64.425781 59.640625 64.296875 59.59375 C 64.023438 59.589844 63.761719 59.527344 63.515625 59.410156 C 62.558594 59.230469 61.621094 58.988281 60.730469 58.578125 C 60.4375 58.613281 60.210938 58.449219 59.960938 58.339844 C 59.992188 58.285156 60.027344 58.234375 60.058594 58.183594 L 60.058594 58.179688 L 60.113281 58.09375 C 60.152344 58.09375 60.191406 58.082031 60.226562 58.070312 C 60.242188 58.066406 60.257812 58.0625 60.269531 58.054688 C 60.492188 58.125 60.714844 58.195312 60.9375 58.261719 C 62.050781 58.429688 63.121094 58.761719 64.195312 59.078125 C 64.195312 59.078125 64.207031 59.167969 64.207031 59.167969 C 64.207031 59.167969 64.242188 59.25 64.242188 59.25 L 64.257812 59.261719 L 64.460938 59.378906 C 64.464844 59.378906 64.46875 59.378906 64.472656 59.378906 C 64.605469 59.355469 64.710938 59.398438 64.804688 59.488281 C 64.8125 59.492188 64.816406 59.496094 64.820312 59.5 C 65.179688 59.515625 65.519531 59.617188 65.839844 59.78125 C 65.84375 59.785156 65.847656 59.785156 65.847656 59.785156 C 65.933594 59.777344 66.019531 59.769531 66.105469 59.761719 C 66.128906 59.757812 66.152344 59.757812 66.171875 59.757812 L 66.160156 59.796875 C 66.164062 59.800781 66.164062 59.800781 66.164062 59.800781 L 66.347656 59.792969 C 66.378906 59.839844 66.417969 59.855469 66.460938 59.863281 C 66.492188 59.863281 66.527344 59.859375 66.5625 59.84375 C 66.691406 59.894531 66.820312 59.945312 66.949219 59.996094 C 67.164062 60.042969 67.386719 60.042969 67.566406 60.195312 C 67.621094 60.183594 67.671875 60.1875 67.722656 60.214844 C 67.839844 60.242188 67.960938 60.269531 68.078125 60.296875 C 68.082031 60.289062 68.085938 60.277344 68.089844 60.269531 C 68.101562 60.28125 68.113281 60.296875 68.121094 60.304688 C 68.128906 60.304688 68.128906 60.304688 68.136719 60.308594 C 68.136719 60.308594 68.109375 60.238281 68.109375 60.238281 C 68.152344 60.269531 68.195312 60.277344 68.246094 60.265625 C 68.316406 60.351562 68.40625 60.367188 68.507812 60.34375 C 68.714844 60.429688 68.925781 60.511719 69.132812 60.59375 C 69.304688 60.613281 69.476562 60.632812 69.648438 60.652344 C 69.660156 60.65625 69.671875 60.65625 69.6875 60.65625 L 69.695312 60.660156 C 69.800781 60.773438 69.933594 60.796875 70.078125 60.761719 L 70.082031 60.765625 C 70.1875 60.882812 70.320312 60.898438 70.464844 60.871094 C 70.566406 60.996094 70.703125 61.003906 70.847656 60.984375 C 70.902344 61.074219 70.980469 61.097656 71.074219 61.066406 L 71.066406 61.121094 C 71.117188 61.097656 71.171875 61.085938 71.226562 61.082031 C 71.28125 61.171875 71.363281 61.199219 71.464844 61.191406 L 71.476562 61.195312 C 71.511719 61.453125 71.300781 61.433594 71.152344 61.488281 C 71.074219 61.445312 71 61.394531 70.917969 61.34375 Z M 92.890625 93.242188 C 92.898438 93.3125 92.882812 93.363281 92.824219 93.371094 C 92.808594 93.375 92.789062 93.378906 92.769531 93.371094 L 92.765625 93.28125 L 92.722656 93.207031 C 92.777344 93.210938 92.835938 93.222656 92.890625 93.242188 Z M 74.820312 88.050781 C 74.847656 87.933594 74.925781 87.894531 75.011719 87.878906 C 75.039062 87.875 75.066406 87.871094 75.089844 87.867188 C 75.082031 87.878906 75.078125 87.890625 75.070312 87.902344 L 75.046875 87.941406 C 75.027344 87.980469 75 88.015625 74.980469 88.050781 C 74.929688 88.070312 74.875 88.070312 74.820312 88.050781 Z M 75.386719 88.125 C 75.417969 88.078125 75.445312 88.03125 75.476562 87.984375 C 75.5 87.953125 75.519531 87.917969 75.542969 87.886719 C 75.59375 87.867188 75.640625 87.875 75.691406 87.902344 C 75.664062 87.941406 75.636719 87.976562 75.613281 88.015625 C 75.589844 88.050781 75.566406 88.082031 75.542969 88.117188 C 75.488281 88.140625 75.4375 88.140625 75.386719 88.125 Z M 76.34375 88.273438 C 76.371094 88.230469 76.402344 88.191406 76.429688 88.148438 C 76.449219 88.121094 76.46875 88.09375 76.488281 88.066406 C 76.539062 88.046875 76.59375 88.050781 76.644531 88.074219 C 76.621094 88.109375 76.59375 88.144531 76.570312 88.179688 C 76.546875 88.210938 76.527344 88.242188 76.5 88.277344 C 76.449219 88.296875 76.398438 88.296875 76.34375 88.273438 Z M 79.808594 89.03125 C 79.699219 88.914062 79.570312 88.898438 79.425781 88.9375 L 79.414062 88.933594 C 79.40625 88.894531 79.398438 88.851562 79.390625 88.808594 C 79.386719 88.792969 79.386719 88.773438 79.382812 88.761719 C 79.375 88.765625 79.371094 88.765625 79.363281 88.769531 C 79.347656 88.777344 79.332031 88.789062 79.3125 88.796875 C 79.238281 88.820312 79.164062 88.8125 79.089844 88.796875 C 79.066406 88.789062 79.039062 88.785156 79.015625 88.777344 L 79.050781 88.8125 L 79.0625 88.859375 C 78.871094 88.71875 78.597656 88.8125 78.433594 88.609375 C 78.375 88.605469 78.3125 88.601562 78.253906 88.59375 C 78.066406 88.566406 77.882812 88.539062 77.699219 88.507812 C 77.726562 88.472656 77.753906 88.4375 77.785156 88.398438 C 77.800781 88.378906 77.816406 88.355469 77.835938 88.335938 C 77.980469 88.304688 78.113281 88.324219 78.21875 88.449219 C 78.273438 88.445312 78.335938 88.4375 78.390625 88.433594 C 78.605469 88.433594 78.820312 88.441406 79 88.585938 C 79.140625 88.605469 79.324219 88.523438 79.394531 88.730469 C 79.507812 88.699219 79.625 88.675781 79.738281 88.648438 C 79.769531 88.6875 79.804688 88.695312 79.847656 88.671875 C 79.925781 88.769531 80.023438 88.773438 80.128906 88.742188 L 80.117188 88.789062 C 80.074219 88.855469 80.027344 88.921875 79.980469 88.988281 C 79.921875 89.003906 79.867188 89.015625 79.808594 89.03125 Z M 81.242188 89.300781 C 81.160156 89.292969 81.074219 89.285156 80.992188 89.273438 C 81.046875 89.207031 81.101562 89.140625 81.15625 89.074219 L 81.164062 89.070312 C 81.207031 89.0625 81.25 89.050781 81.289062 89.03125 C 81.339844 89.0625 81.390625 89.070312 81.445312 89.054688 C 81.46875 89.105469 81.503906 89.152344 81.546875 89.1875 C 81.597656 89.171875 81.644531 89.15625 81.691406 89.132812 L 81.6875 89.1875 L 81.539062 89.40625 C 81.425781 89.417969 81.328125 89.382812 81.242188 89.300781 Z M 87.09375 91.105469 C 86.925781 91.082031 86.746094 91.09375 86.65625 90.90625 C 86.445312 90.96875 86.28125 90.847656 86.101562 90.773438 C 85.8125 90.726562 85.515625 90.691406 85.28125 90.472656 C 85.222656 90.457031 85.160156 90.4375 85.097656 90.421875 C 84.808594 90.375 84.519531 90.320312 84.277344 90.132812 C 84.132812 90.148438 83.984375 90.167969 83.894531 90.003906 C 83.832031 89.996094 83.773438 89.996094 83.710938 89.988281 C 83.582031 89.953125 83.449219 89.917969 83.320312 89.878906 C 83.066406 89.816406 82.808594 89.75 82.554688 89.683594 C 82.601562 89.621094 82.648438 89.558594 82.695312 89.492188 C 82.703125 89.496094 82.710938 89.488281 82.71875 89.492188 C 82.765625 89.484375 82.8125 89.476562 82.859375 89.457031 C 83.003906 89.535156 83.148438 89.617188 83.292969 89.695312 C 83.441406 89.691406 83.589844 89.667969 83.679688 89.832031 C 83.738281 89.835938 83.800781 89.84375 83.859375 89.847656 C 83.992188 89.886719 84.125 89.925781 84.257812 89.964844 C 84.542969 90.023438 84.839844 90.058594 85.066406 90.277344 C 85.121094 90.277344 85.183594 90.277344 85.238281 90.277344 C 85.535156 90.320312 85.828125 90.367188 86.0625 90.59375 C 86.292969 90.613281 86.523438 90.636719 86.679688 90.847656 C 86.835938 90.796875 86.96875 90.8125 87.054688 90.972656 C 87.113281 90.96875 87.167969 90.96875 87.226562 90.964844 C 87.246094 91.042969 87.269531 91.121094 87.289062 91.203125 C 87.226562 91.171875 87.160156 91.140625 87.09375 91.105469 Z M 87.710938 91.363281 C 87.695312 91.292969 87.679688 91.226562 87.660156 91.15625 C 87.71875 91.171875 87.777344 91.183594 87.835938 91.199219 C 87.855469 91.269531 87.867188 91.335938 87.886719 91.40625 C 87.828125 91.390625 87.769531 91.375 87.710938 91.363281 Z M 88.316406 91.59375 L 88.261719 91.367188 C 88.320312 91.390625 88.382812 91.410156 88.441406 91.433594 C 88.457031 91.496094 88.472656 91.5625 88.492188 91.632812 C 88.429688 91.632812 88.371094 91.621094 88.316406 91.59375 Z M 90.136719 92.304688 C 90.117188 92.230469 90.09375 92.152344 90.074219 92.074219 C 90.136719 92.101562 90.199219 92.125 90.261719 92.152344 C 90.277344 92.214844 90.292969 92.28125 90.308594 92.347656 C 90.246094 92.351562 90.1875 92.339844 90.136719 92.304688 Z M 90.742188 92.550781 C 90.722656 92.480469 90.703125 92.40625 90.6875 92.332031 C 90.746094 92.355469 90.808594 92.375 90.867188 92.398438 C 90.886719 92.46875 90.902344 92.535156 90.917969 92.605469 C 90.859375 92.585938 90.796875 92.570312 90.742188 92.550781 Z M 91.34375 92.800781 C 91.328125 92.734375 91.3125 92.664062 91.296875 92.597656 C 91.355469 92.617188 91.414062 92.632812 91.472656 92.648438 C 91.492188 92.726562 91.515625 92.800781 91.535156 92.882812 C 91.46875 92.855469 91.40625 92.828125 91.34375 92.800781 Z M 92.167969 93.164062 C 92.144531 93.082031 92.125 93.003906 92.101562 92.921875 C 92.167969 92.949219 92.230469 92.976562 92.292969 93.007812 L 92.339844 93.210938 C 92.28125 93.195312 92.222656 93.179688 92.167969 93.164062 Z M 92.167969 93.164062"/></g></g></g><g clip-path="url(#e)"><g clip-path="url(#f)"><g clip-path="url(#g)"><path fill="#CD5C5C" d="M 608.082031 480.230469 C 607.777344 480.578125 607.5625 480.976562 607.457031 481.457031 C 607.40625 481.542969 607.328125 481.652344 607.296875 481.765625 C 607.242188 481.855469 607.214844 481.921875 607.160156 482.011719 C 606.78125 482.769531 606.378906 483.503906 605.996094 484.261719 C 605.617188 485.019531 605.191406 485.730469 604.789062 486.464844 C 603.9375 487.929688 603.179688 489.398438 602.394531 490.890625 C 601.988281 491.71875 601.578125 492.542969 601.1875 493.394531 C 601.023438 493.75 600.878906 494.132812 600.734375 494.515625 C 600.535156 494.988281 600.359375 495.484375 600.230469 495.980469 C 599.894531 497.34375 600.71875 498.699219 602.054688 499.046875 C 602.710938 499.210938 603.4375 499.101562 604.019531 498.726562 C 604.578125 498.375 604.96875 497.824219 605.128906 497.210938 C 605.429688 496.308594 605.816406 495.457031 606.230469 494.585938 C 606.507812 493.960938 606.855469 493.359375 607.15625 492.757812 C 607.421875 492.269531 607.667969 491.800781 607.890625 491.308594 C 607.976562 492.007812 608.105469 492.710938 608.214844 493.433594 L 608.816406 497.382812 C 609.1875 499.8125 609.484375 502.261719 609.714844 504.730469 C 609.816406 505.84375 609.914062 506.960938 610.015625 508.078125 C 610.261719 510.617188 610.558594 513.109375 610.855469 515.605469 C 611.152344 518.097656 611.414062 520.75 611.707031 523.292969 C 611.980469 525.761719 612.300781 528.234375 612.621094 530.707031 C 612.941406 533.226562 613.304688 535.746094 613.621094 538.265625 L 614.644531 545.804688 C 614.828125 547.066406 614.988281 548.304688 615.171875 549.519531 L 615.449219 551.339844 L 615.566406 552.226562 C 615.578125 552.390625 615.636719 552.554688 615.644531 552.71875 C 615.742188 553.28125 616.003906 553.785156 616.390625 554.179688 C 617.429688 555.132812 619.027344 555.085938 619.984375 554.046875 C 620.363281 553.632812 620.585938 553.140625 620.648438 552.613281 C 620.699219 552.226562 620.683594 551.855469 620.546875 551.5 C 620.464844 551.054688 620.386719 550.5625 620.332031 550.097656 L 620.074219 548.296875 C 619.910156 547.109375 619.746094 545.917969 619.582031 544.726562 L 618.605469 537.191406 C 618.265625 534.648438 617.921875 532.152344 617.585938 529.605469 C 617.261719 527.132812 616.941406 524.660156 616.667969 522.191406 C 616.351562 519.628906 616.109375 517.042969 615.816406 514.503906 C 615.539062 512.082031 615.257812 509.703125 615.023438 507.28125 C 614.921875 506.164062 614.824219 505.050781 614.722656 503.933594 C 614.472656 501.441406 614.175781 498.949219 613.789062 496.445312 L 613.1875 492.496094 L 613.023438 491.308594 C 613.417969 491.867188 613.839844 492.40625 614.238281 492.964844 C 614.300781 493.039062 614.339844 493.136719 614.402344 493.210938 C 614.613281 493.5 614.820312 493.792969 615.03125 494.085938 C 615.511719 494.746094 616.019531 495.382812 616.546875 496.042969 C 617.074219 496.707031 617.535156 497.339844 618.015625 498 C 618.417969 498.511719 619.039062 498.835938 619.703125 498.90625 C 620.371094 498.976562 621.054688 498.769531 621.574219 498.324219 C 622.070312 497.898438 622.390625 497.320312 622.464844 496.652344 C 622.515625 496.3125 622.472656 495.960938 622.378906 495.652344 C 622.285156 495.347656 622.125 495.058594 621.910156 494.8125 C 621.765625 494.59375 621.597656 494.394531 621.429688 494.152344 C 620.921875 493.515625 620.441406 492.855469 619.933594 492.21875 C 619.429688 491.582031 618.988281 490.972656 618.527344 490.339844 L 618.464844 490.265625 C 618.402344 490.191406 618.363281 490.097656 618.296875 490.023438 L 618.210938 489.921875 L 618.277344 489.996094 C 617.917969 489.53125 617.5625 489.066406 617.226562 488.582031 C 616.894531 488.09375 616.582031 487.632812 616.296875 487.152344 C 615.863281 486.449219 615.460938 485.679688 615.003906 485 C 614.527344 484.25 613.980469 483.5625 613.433594 482.832031 C 613.203125 482.515625 612.976562 482.152344 612.769531 481.8125 C 612.566406 481.476562 612.320312 481.042969 612.074219 480.652344 L 612.117188 480.703125 C 612.054688 480.582031 611.949219 480.460938 611.863281 480.363281 C 610.949219 479.300781 609.386719 479.191406 608.328125 480.0625 C 608.277344 480.105469 608.203125 480.167969 608.082031 480.230469 Z M 607.238281 481.902344 L 607.265625 481.835938 C 607.238281 481.902344 607.214844 481.921875 607.210938 481.96875 Z M 655.285156 510.148438 C 656.246094 511.210938 657.179688 512.296875 658.117188 513.378906 C 659.964844 515.523438 661.914062 517.582031 663.8125 519.683594 C 664.707031 520.671875 665.578125 521.683594 666.5 522.648438 C 667.417969 523.617188 668.355469 524.699219 669.316406 525.71875 L 669.464844 525.890625 C 670.355469 526.972656 670.167969 528.550781 669.105469 529.421875 C 668.070312 530.273438 666.574219 530.1875 665.679688 529.199219 C 665.230469 528.730469 664.78125 528.210938 664.3125 527.714844 C 663.820312 527.195312 663.332031 526.628906 662.839844 526.109375 C 661.917969 525.140625 661.046875 524.128906 660.128906 523.117188 C 658.230469 521.015625 656.261719 518.933594 654.414062 516.789062 C 653.476562 515.707031 652.542969 514.621094 651.582031 513.558594 C 650.625 512.496094 649.644531 511.410156 648.707031 510.324219 C 647.789062 509.3125 646.898438 508.277344 645.984375 507.21875 C 645.070312 506.15625 644.195312 505.195312 643.304688 504.160156 C 642.835938 503.617188 642.347656 503.050781 641.859375 502.484375 L 640.539062 500.957031 L 637.648438 497.652344 C 635.796875 495.554688 633.941406 493.457031 631.96875 491.464844 C 631.34375 490.84375 630.71875 490.21875 630.121094 489.578125 C 630.460938 490.570312 630.824219 491.589844 631.191406 492.566406 C 631.417969 493.230469 631.667969 493.871094 631.941406 494.539062 C 632.214844 495.203125 632.421875 495.84375 632.671875 496.484375 C 632.902344 497.101562 632.871094 497.816406 632.574219 498.417969 C 631.96875 499.671875 630.46875 500.234375 629.199219 499.609375 C 628.910156 499.472656 628.648438 499.269531 628.410156 499.046875 C 628.199219 498.796875 628.035156 498.507812 627.894531 498.199219 C 627.582031 497.4375 627.320312 496.632812 626.988281 495.847656 C 626.65625 495.058594 626.414062 494.28125 626.148438 493.519531 C 625.574219 491.953125 625.042969 490.390625 624.539062 488.804688 C 624.035156 487.222656 623.539062 485.542969 623.085938 483.917969 L 622.5 481.84375 C 622.339844 481.207031 622.136719 480.566406 621.929688 479.929688 C 621.796875 479.527344 621.757812 479.128906 621.8125 478.742188 C 621.558594 477.5 622.25 476.300781 623.441406 475.878906 C 624.390625 475.53125 625.363281 475.808594 626.261719 476.148438 C 626.710938 476.320312 627.207031 476.496094 627.652344 476.710938 C 628.03125 476.898438 628.433594 477.066406 628.8125 477.257812 C 629.191406 477.445312 629.570312 477.632812 629.949219 477.824219 L 630.507812 478.070312 C 631.992188 478.640625 633.480469 479.117188 634.992188 479.617188 C 635.871094 479.9375 636.746094 480.253906 637.621094 480.617188 C 638.292969 480.894531 638.960938 481.222656 639.65625 481.523438 C 640.039062 481.667969 640.445312 481.789062 640.847656 481.957031 C 641.277344 482.105469 641.671875 482.363281 641.992188 482.734375 C 642.121094 482.878906 642.222656 483.050781 642.304688 483.195312 C 642.949219 484.441406 642.464844 485.933594 641.234375 486.609375 C 640.636719 486.910156 639.933594 487 639.304688 486.769531 C 638.515625 486.503906 637.730469 486.195312 636.96875 485.863281 C 636.296875 485.582031 635.628906 485.257812 634.957031 484.976562 C 633.921875 484.582031 632.839844 484.226562 631.78125 483.847656 C 632.121094 484.242188 632.464844 484.589844 632.804688 484.984375 C 633.769531 486.003906 634.777344 487.023438 635.765625 488.015625 C 637.742188 490.007812 639.613281 492.128906 641.46875 494.226562 C 642.449219 495.316406 643.40625 496.421875 644.359375 497.53125 L 647.101562 500.710938 C 647.996094 501.746094 648.890625 502.734375 649.78125 503.769531 C 650.675781 504.804688 651.613281 505.839844 652.507812 506.875 C 653.371094 507.980469 654.351562 509.066406 655.285156 510.148438 Z M 631.039062 469.28125 C 630.964844 469.945312 631.191406 470.609375 631.617188 471.101562 C 631.699219 471.199219 631.785156 471.300781 631.894531 471.375 C 632.015625 471.617188 632.160156 471.835938 632.304688 472.054688 C 632.371094 472.128906 632.414062 472.175781 632.476562 472.25 L 632.835938 472.667969 C 633.050781 472.914062 633.289062 473.140625 633.519531 473.410156 C 634.183594 474.128906 634.847656 474.847656 635.53125 475.542969 C 636.113281 476.117188 636.769531 476.625 637.351562 477.152344 C 638.699219 478.3125 640.089844 479.476562 641.484375 480.59375 L 641.988281 480.976562 L 641.726562 480.773438 C 642.898438 481.734375 644.152344 482.585938 645.355469 483.484375 C 645.90625 483.867188 646.609375 484.035156 647.265625 483.898438 C 648.648438 483.648438 649.535156 482.328125 649.292969 480.945312 C 649.210938 480.5 649.035156 480.09375 648.738281 479.75 C 648.609375 479.601562 648.457031 479.476562 648.285156 479.324219 C 647.167969 478.480469 646.003906 477.683594 644.914062 476.816406 L 644.675781 476.640625 C 643.78125 475.90625 642.890625 475.171875 641.996094 474.4375 L 641.324219 473.855469 C 641.78125 473.933594 642.242188 473.96875 642.699219 474 C 643.640625 474.09375 644.558594 474.203125 645.519531 474.320312 C 647.238281 474.511719 648.957031 474.75 650.671875 474.988281 C 651.675781 475.152344 652.679688 475.320312 653.683594 475.484375 C 655.511719 475.800781 657.359375 476.140625 659.207031 476.433594 C 661.144531 476.78125 663.132812 477.132812 665.097656 477.410156 L 665.371094 477.476562 L 665.390625 477.503906 C 665.484375 477.507812 665.550781 477.535156 665.644531 477.542969 C 665.710938 477.570312 665.800781 477.578125 665.871094 477.558594 L 666.171875 477.605469 L 666.261719 477.609375 L 666.214844 477.609375 L 666.285156 477.636719 C 666.832031 477.722656 667.378906 477.808594 667.929688 477.890625 C 669.710938 478.160156 671.472656 478.402344 673.28125 478.648438 C 675.089844 478.890625 676.917969 479.160156 678.722656 479.453125 C 680.617188 479.75 682.492188 480.023438 684.414062 480.300781 C 685.285156 480.410156 686.175781 480.542969 687.046875 480.652344 C 687.527344 480.710938 687.988281 480.742188 688.46875 480.800781 L 689.132812 480.871094 C 689.570312 480.925781 690.007812 480.933594 690.429688 480.871094 C 691.0625 480.753906 691.644531 480.382812 692.03125 479.832031 C 692.421875 479.28125 692.589844 478.578125 692.453125 477.921875 C 692.375 477.476562 692.171875 477.089844 691.875 476.746094 C 691.363281 476.15625 690.601562 475.824219 689.8125 475.859375 C 689.5625 475.816406 689.308594 475.820312 689.058594 475.78125 C 687.265625 475.605469 685.460938 475.359375 683.675781 475.09375 C 681.800781 474.820312 679.90625 474.523438 678.03125 474.25 C 676.246094 473.984375 674.464844 473.714844 672.65625 473.472656 C 670.800781 473.222656 668.925781 472.949219 667.078125 472.65625 L 666.984375 472.648438 L 667.050781 472.675781 L 666.984375 472.648438 L 666.78125 472.609375 L 666.734375 472.605469 L 666.78125 472.609375 L 666.734375 472.605469 C 666.640625 472.601562 666.574219 472.570312 666.484375 472.566406 L 666.253906 472.550781 L 666.09375 472.515625 L 666.230469 472.523438 L 666.1875 472.519531 L 666.074219 472.488281 L 666.117188 472.492188 L 666.050781 472.464844 L 666.03125 472.441406 L 665.984375 472.4375 L 665.960938 472.414062 L 665.847656 472.382812 C 664.890625 472.21875 663.886719 472.054688 662.925781 471.894531 C 661.078125 471.601562 659.230469 471.257812 657.359375 470.941406 C 655.488281 470.621094 653.707031 470.308594 651.882812 469.992188 C 649.984375 469.695312 648.085938 469.441406 646.183594 469.234375 C 644.648438 469.054688 643.132812 468.902344 641.597656 468.722656 C 642.003906 468.542969 642.433594 468.390625 642.839844 468.210938 C 643.457031 467.976562 644.097656 467.769531 644.71875 467.535156 C 645.40625 467.285156 646.097656 466.988281 646.792969 466.691406 C 647.484375 466.394531 648.21875 466.191406 648.929688 465.921875 C 649.289062 465.785156 649.691406 465.652344 650.070312 465.539062 C 650.449219 465.429688 650.828125 465.316406 651.203125 465.207031 C 651.84375 464.996094 652.363281 464.550781 652.660156 463.992188 C 652.960938 463.390625 653.039062 462.679688 652.832031 462.039062 C 652.738281 461.734375 652.554688 461.417969 652.34375 461.171875 C 652.128906 460.925781 651.890625 460.746094 651.625 460.589844 C 651.023438 460.292969 650.3125 460.21875 649.671875 460.425781 C 649.199219 460.578125 648.726562 460.683594 648.253906 460.832031 C 647.875 460.945312 647.492188 461.101562 647.089844 461.234375 C 646.6875 461.367188 646.355469 461.484375 645.953125 461.617188 C 645.167969 461.90625 644.378906 462.242188 643.570312 462.554688 C 642.949219 462.785156 642.335938 462.972656 641.742188 463.183594 C 641.050781 463.4375 640.382812 463.710938 639.691406 464.007812 C 639.523438 464.066406 639.378906 464.148438 639.238281 464.183594 C 638.355469 464.515625 637.476562 464.84375 636.613281 465.246094 C 635.917969 465.585938 635.222656 465.929688 634.507812 466.203125 C 634.199219 466.296875 633.886719 466.433594 633.582031 466.527344 C 633.273438 466.621094 633.03125 466.742188 632.746094 466.863281 C 632.554688 466.941406 632.386719 467.042969 632.191406 467.167969 C 632.167969 467.191406 632.140625 467.210938 632.117188 467.234375 L 631.949219 467.335938 C 631.996094 467.292969 632.023438 467.273438 632.070312 467.230469 C 631.976562 467.269531 631.875 467.355469 631.800781 467.417969 C 631.410156 468.015625 631.109375 468.617188 631.039062 469.28125 Z M 666.304688 477.660156 Z M 666.328125 477.640625 Z M 633.433594 466.957031 L 633.480469 466.960938 L 633.363281 466.976562 Z M 633.128906 467.003906 C 633.152344 466.984375 633.175781 467.007812 633.199219 466.988281 C 633.152344 466.984375 633.082031 467 633.058594 467.023438 C 633.058594 467.023438 633.082031 467 633.128906 467.003906 Z M 632.800781 467.074219 L 632.847656 467.078125 Z M 632.222656 467.355469 Z M 632.222656 467.355469"/></g></g></g><g clip-path="url(#h)"><g clip-path="url(#i)"><g clip-path="url(#j)"><path fill="#FC9C3B" d="M 657.476562 114.738281 C 657.585938 114.601562 657.675781 114.460938 657.738281 114.316406 C 657.757812 114.230469 657.777344 114.144531 657.789062 114.046875 C 657.773438 113.921875 657.710938 113.792969 657.660156 113.675781 C 657.554688 113.46875 657.425781 113.257812 657.296875 113.046875 C 657.035156 112.625 656.761719 112.214844 656.480469 111.792969 C 655.925781 110.933594 655.378906 110.089844 654.800781 109.253906 C 654.152344 108.3125 653.503906 107.398438 652.855469 106.484375 C 652.238281 105.632812 651.617188 104.78125 650.960938 103.964844 C 650.746094 103.734375 650.542969 103.492188 650.34375 103.25 L 649.78125 102.601562 C 649.398438 102.171875 649.015625 101.738281 648.617188 101.316406 C 648.269531 100.925781 647.882812 100.542969 647.519531 100.164062 C 647.15625 99.78125 646.78125 99.414062 646.40625 99.019531 C 645.613281 98.203125 644.789062 97.40625 643.980469 96.601562 C 643.171875 95.796875 642.347656 95.050781 641.523438 94.28125 C 641.351562 94.128906 641.179688 93.976562 640.996094 93.808594 L 640.292969 93.1875 C 640.109375 93.023438 639.925781 92.882812 639.738281 92.714844 L 639 92.101562 C 638.828125 91.949219 638.628906 91.820312 638.445312 91.679688 L 637.65625 91.0625 C 637.492188 90.949219 637.316406 90.820312 637.152344 90.707031 L 636.28125 90.070312 C 635.394531 89.417969 634.46875 88.800781 633.570312 88.183594 C 632.691406 87.597656 631.8125 87.007812 630.917969 86.457031 C 630.472656 86.167969 630.027344 85.878906 629.578125 85.613281 C 629.132812 85.351562 628.648438 85.046875 628.175781 84.78125 L 627.183594 84.21875 C 626.972656 84.101562 626.757812 83.980469 626.546875 83.863281 L 624.933594 83.023438 C 624.421875 82.765625 623.910156 82.507812 623.386719 82.261719 C 622.863281 82.015625 622.386719 81.773438 621.875 81.542969 C 621.359375 81.308594 620.871094 81.078125 620.382812 80.851562 C 619.894531 80.621094 619.367188 80.398438 618.84375 80.175781 C 618.316406 79.957031 617.8125 79.761719 617.296875 79.554688 C 616.78125 79.347656 616.261719 79.1875 615.730469 78.992188 C 614.707031 78.636719 613.652344 78.332031 612.625 78.027344 C 612.359375 77.957031 612.089844 77.882812 611.824219 77.808594 C 611.558594 77.734375 611.339844 77.664062 611.109375 77.605469 C 610.613281 77.476562 610.089844 77.339844 609.589844 77.234375 L 608.527344 77.027344 C 608.320312 76.996094 608.109375 76.964844 607.902344 76.933594 C 607.644531 76.898438 607.375 76.847656 607.117188 76.8125 L 606.148438 76.691406 C 605.050781 76.554688 603.964844 76.480469 602.851562 76.429688 C 602.617188 76.421875 602.367188 76.425781 602.121094 76.402344 C 601.875 76.382812 601.585938 76.394531 601.324219 76.40625 L 600.328125 76.441406 C 600.0625 76.457031 599.800781 76.46875 599.535156 76.507812 C 599.023438 76.546875 598.511719 76.589844 598.003906 76.667969 C 597.414062 76.75 596.835938 76.824219 596.25 76.945312 C 596.0625 76.992188 595.882812 77.023438 595.691406 77.070312 C 595.59375 77.085938 595.503906 77.113281 595.402344 77.132812 L 594.597656 77.371094 C 594.429688 77.417969 594.238281 77.488281 594.082031 77.546875 L 593.660156 77.695312 C 593.53125 77.734375 593.402344 77.796875 593.269531 77.859375 L 592.789062 78.078125 C 592.542969 78.191406 592.292969 78.332031 592.058594 78.460938 C 591.785156 78.597656 591.519531 78.773438 591.246094 78.933594 C 590.996094 79.074219 590.78125 79.226562 590.542969 79.378906 C 590.265625 79.566406 590 79.742188 589.734375 79.941406 C 589.601562 80.027344 589.46875 80.140625 589.34375 80.242188 C 589.222656 80.34375 589.050781 80.464844 588.917969 80.578125 C 588.714844 80.746094 588.511719 80.9375 588.308594 81.105469 C 588.0625 81.332031 587.832031 81.574219 587.597656 81.8125 C 587.390625 82.03125 587.195312 82.261719 587 82.492188 C 586.804688 82.722656 586.617188 82.992188 586.421875 83.25 C 586.277344 83.460938 586.128906 83.695312 585.988281 83.90625 C 585.679688 84.414062 585.394531 84.921875 585.148438 85.445312 C 584.902344 85.945312 584.695312 86.460938 584.484375 86.976562 C 584.273438 87.492188 584.117188 88.015625 583.976562 88.5625 C 583.914062 88.839844 583.839844 89.109375 583.789062 89.402344 C 583.738281 89.695312 583.691406 89.914062 583.65625 90.171875 C 583.613281 90.480469 583.574219 90.789062 583.546875 91.082031 L 583.519531 91.355469 C 583.308594 91.347656 583.089844 91.328125 582.863281 91.332031 C 582.320312 91.308594 581.773438 91.308594 581.238281 91.324219 C 580.699219 91.335938 580.125 91.386719 579.574219 91.433594 C 578.484375 91.523438 577.398438 91.699219 576.332031 91.929688 C 575.238281 92.179688 574.15625 92.464844 573.105469 92.820312 C 572.589844 92.996094 572.089844 93.164062 571.585938 93.378906 C 571.042969 93.605469 570.5 93.828125 569.980469 94.082031 C 568.925781 94.570312 567.886719 95.074219 566.84375 95.601562 C 564.828125 96.664062 562.878906 97.855469 561.015625 99.179688 C 560.128906 99.761719 559.25 100.402344 558.382812 101.058594 C 557.929688 101.390625 557.488281 101.734375 557.03125 102.09375 C 556.574219 102.449219 556.160156 102.773438 555.71875 103.117188 C 554.855469 103.835938 553.992188 104.554688 553.179688 105.300781 C 552.378906 106.039062 551.585938 106.789062 550.832031 107.554688 C 550.078125 108.316406 549.292969 109.15625 548.523438 109.957031 C 548.121094 110.378906 547.722656 110.804688 547.335938 111.242188 C 546.945312 111.679688 546.597656 112.082031 546.234375 112.523438 C 545.550781 113.34375 544.898438 114.203125 544.246094 115.066406 C 543.878906 115.554688 543.519531 116.058594 543.164062 116.558594 C 542.847656 117.003906 542.546875 117.460938 542.265625 117.921875 C 541.683594 118.839844 541.128906 119.757812 540.570312 120.679688 C 540.277344 121.148438 539.984375 121.621094 539.730469 122.105469 C 539.472656 122.59375 539.207031 123.042969 538.953125 123.503906 C 538.59375 124.167969 538.222656 124.816406 537.863281 125.480469 L 537.859375 125.394531 C 537.699219 124.4375 537.5 123.484375 537.328125 122.539062 C 537.234375 121.933594 537.164062 121.328125 537.125 120.703125 C 537.117188 120.503906 536.957031 120.34375 536.761719 120.324219 C 536.476562 120.3125 536.199219 120.359375 535.949219 120.5 C 535.636719 120.644531 535.355469 120.855469 535.132812 121.136719 C 534.980469 121.308594 534.808594 121.566406 534.820312 121.828125 C 534.871094 122.605469 534.976562 123.359375 535.105469 124.117188 C 535.242188 124.910156 535.40625 125.710938 535.554688 126.519531 C 535.636719 126.972656 535.695312 127.425781 535.738281 127.890625 C 535.765625 128.140625 535.78125 128.402344 535.804688 128.652344 C 535.8125 128.851562 535.820312 129.050781 535.851562 129.253906 C 535.859375 129.429688 535.890625 129.605469 535.964844 129.75 C 535.976562 129.761719 535.988281 129.777344 536 129.789062 C 536.125 129.914062 536.292969 129.976562 536.445312 129.964844 C 536.542969 129.976562 536.628906 129.96875 536.707031 129.953125 C 537.023438 129.894531 537.320312 129.757812 537.585938 129.558594 C 537.613281 129.535156 537.65625 129.503906 537.683594 129.480469 C 537.972656 129.308594 538.285156 129.136719 538.574219 128.964844 C 538.929688 128.757812 539.285156 128.53125 539.652344 128.339844 C 540.019531 128.148438 540.398438 127.921875 540.777344 127.71875 C 540.988281 127.613281 541.183594 127.496094 541.378906 127.402344 C 541.523438 127.328125 541.667969 127.226562 541.8125 127.152344 C 541.957031 127.078125 542.164062 126.972656 542.332031 126.902344 C 542.5 126.828125 542.695312 126.734375 542.878906 126.652344 C 543.191406 126.507812 543.472656 126.296875 543.695312 126.015625 C 543.875 125.820312 543.996094 125.585938 544.007812 125.324219 C 544 125.125 543.84375 124.960938 543.644531 124.945312 C 543.359375 124.929688 543.082031 124.980469 542.832031 125.121094 C 542.753906 125.164062 542.675781 125.203125 542.585938 125.234375 C 542.300781 125.359375 542.015625 125.480469 541.742188 125.617188 C 541.414062 125.800781 541.113281 125.984375 540.785156 126.167969 L 540.878906 126.113281 C 540.511719 126.304688 540.15625 126.507812 539.816406 126.699219 C 539.59375 126.816406 539.359375 126.945312 539.136719 127.0625 C 539.058594 127.105469 538.964844 127.160156 538.875 127.214844 C 539.382812 126.128906 539.964844 125.074219 540.535156 124.007812 C 540.878906 123.402344 541.195312 122.796875 541.539062 122.195312 C 541.894531 121.554688 542.277344 120.917969 542.65625 120.304688 C 543.191406 119.472656 543.71875 118.625 544.246094 117.777344 C 544.519531 117.339844 544.785156 116.917969 545.097656 116.496094 C 545.410156 116.054688 545.738281 115.621094 546.050781 115.179688 C 546.335938 114.804688 546.617188 114.433594 546.898438 114.0625 C 547.195312 113.679688 547.492188 113.292969 547.789062 112.933594 C 548.136719 112.53125 548.457031 112.125 548.816406 111.734375 C 549.082031 111.421875 549.347656 111.136719 549.621094 110.835938 C 550.449219 109.941406 551.289062 109.058594 552.140625 108.191406 C 552.949219 107.382812 553.78125 106.574219 554.625 105.804688 C 554.921875 105.53125 555.222656 105.261719 555.542969 104.992188 C 555.894531 104.699219 556.246094 104.410156 556.59375 104.117188 C 557.175781 103.632812 557.761719 103.191406 558.351562 102.71875 C 559.144531 102.109375 559.929688 101.519531 560.742188 100.933594 C 561.554688 100.347656 562.324219 99.820312 563.148438 99.273438 C 563.609375 98.976562 564.074219 98.660156 564.546875 98.378906 C 564.808594 98.226562 565.0625 98.0625 565.324219 97.914062 L 566.097656 97.472656 C 566.4375 97.28125 566.777344 97.113281 567.128906 96.933594 C 567.574219 96.699219 568.03125 96.476562 568.484375 96.257812 C 569.226562 95.890625 569.992188 95.546875 570.746094 95.191406 C 571.109375 95.050781 571.457031 94.898438 571.820312 94.753906 C 572.179688 94.613281 572.527344 94.507812 572.875 94.378906 C 573.347656 94.234375 573.832031 94.078125 574.304688 93.957031 C 574.738281 93.847656 575.179688 93.75 575.613281 93.640625 C 576.019531 93.554688 576.4375 93.480469 576.839844 93.414062 C 577.292969 93.355469 577.746094 93.296875 578.199219 93.238281 C 578.5 93.214844 578.777344 93.191406 579.078125 93.167969 C 579.425781 93.148438 579.777344 93.132812 580.136719 93.125 C 580.746094 93.121094 581.355469 93.136719 581.960938 93.152344 C 582.210938 93.175781 582.46875 93.1875 582.714844 93.207031 L 583.195312 93.265625 C 583.292969 93.273438 583.367188 93.28125 583.46875 93.289062 L 583.476562 93.601562 C 583.476562 93.875 583.484375 94.160156 583.511719 94.4375 C 583.527344 94.671875 583.542969 94.910156 583.554688 95.148438 C 583.570312 95.386719 583.605469 95.675781 583.644531 95.941406 C 583.679688 96.230469 583.714844 96.542969 583.773438 96.832031 L 583.949219 97.78125 C 583.984375 98.046875 584.0625 98.300781 584.113281 98.554688 C 584.226562 99.050781 584.34375 99.542969 584.5 100.03125 C 584.585938 100.300781 584.660156 100.578125 584.746094 100.847656 L 584.933594 101.375 C 584.972656 101.476562 585.011719 101.605469 585.050781 101.707031 L 585.417969 102.585938 C 585.519531 102.820312 585.648438 103.054688 585.75 103.289062 C 585.855469 103.519531 585.992188 103.769531 586.121094 104.003906 C 586.226562 104.210938 586.34375 104.433594 586.472656 104.644531 C 586.621094 104.90625 586.761719 105.15625 586.925781 105.40625 L 587.4375 106.1875 C 587.589844 106.421875 587.757812 106.625 587.910156 106.863281 C 588.039062 107.046875 588.1875 107.222656 588.332031 107.398438 C 588.5 107.597656 588.664062 107.824219 588.847656 108.015625 C 589.027344 108.207031 589.21875 108.433594 589.410156 108.636719 L 589.808594 109.035156 C 589.902344 109.117188 589.980469 109.210938 590.070312 109.292969 L 590.714844 109.871094 C 590.917969 110.066406 591.140625 110.222656 591.359375 110.402344 C 591.582031 110.585938 591.769531 110.699219 591.964844 110.855469 C 592.199219 111.023438 592.445312 111.183594 592.691406 111.34375 C 592.902344 111.484375 593.140625 111.605469 593.363281 111.738281 C 593.835938 112.003906 594.335938 112.25 594.851562 112.457031 C 594.996094 112.519531 595.140625 112.558594 595.273438 112.605469 C 595.371094 112.640625 595.453125 112.683594 595.550781 112.691406 C 595.828125 112.78125 596.105469 112.867188 596.375 112.941406 C 596.640625 113.015625 596.929688 113.089844 597.226562 113.140625 C 597.359375 113.167969 597.496094 113.191406 597.628906 113.214844 C 597.761719 113.238281 597.921875 113.265625 598.070312 113.28125 C 598.242188 113.296875 598.414062 113.308594 598.589844 113.300781 C 598.816406 113.296875 599.050781 113.28125 599.269531 113.238281 C 599.445312 113.203125 599.597656 113.167969 599.761719 113.121094 C 599.941406 113.0625 600.109375 113.015625 600.277344 112.941406 C 601.089844 112.605469 601.808594 112.097656 602.394531 111.429688 C 602.839844 110.921875 603.167969 110.332031 603.375 109.703125 C 603.464844 109.398438 603.519531 109.082031 603.546875 108.761719 C 603.578125 108.417969 603.585938 108.070312 603.554688 107.730469 C 603.535156 107.429688 603.488281 107.128906 603.414062 106.824219 L 603.296875 106.351562 C 603.234375 106.109375 603.15625 105.855469 603.066406 105.609375 C 603.03125 105.484375 602.976562 105.367188 602.925781 105.25 C 602.875 105.132812 602.839844 104.980469 602.777344 104.851562 L 602.480469 104.167969 C 602.40625 104.023438 602.332031 103.878906 602.257812 103.734375 C 602.207031 103.621094 602.15625 103.503906 602.089844 103.398438 C 601.972656 103.175781 601.847656 102.941406 601.71875 102.730469 C 601.425781 102.269531 601.15625 101.808594 600.835938 101.371094 C 600.667969 101.144531 600.519531 100.90625 600.339844 100.667969 L 599.820312 99.988281 C 599.710938 99.828125 599.585938 99.679688 599.449219 99.542969 L 599.269531 99.328125 C 599.113281 99.140625 598.933594 98.949219 598.765625 98.75 C 598.597656 98.546875 598.390625 98.355469 598.199219 98.152344 C 598.027344 97.976562 597.84375 97.808594 597.675781 97.632812 C 597.285156 97.273438 596.894531 96.917969 596.488281 96.59375 C 596.257812 96.398438 596.015625 96.191406 595.773438 96.007812 L 595.085938 95.484375 C 594.867188 95.328125 594.644531 95.171875 594.433594 95.03125 C 594.234375 94.898438 594.035156 94.769531 593.835938 94.640625 C 593.375 94.363281 592.917969 94.085938 592.429688 93.832031 C 592.183594 93.695312 591.910156 93.558594 591.644531 93.4375 C 591.382812 93.316406 591.121094 93.191406 590.859375 93.070312 L 590.046875 92.722656 C 589.796875 92.613281 589.542969 92.527344 589.277344 92.429688 C 588.773438 92.234375 588.238281 92.089844 587.71875 91.929688 C 587.199219 91.769531 586.613281 91.644531 586.078125 91.519531 C 585.96875 91.5 585.882812 91.480469 585.773438 91.457031 L 585.777344 91.160156 C 585.785156 90.921875 585.792969 90.710938 585.800781 90.476562 L 585.84375 89.761719 L 585.9375 89.023438 C 585.957031 88.824219 585.996094 88.628906 586.039062 88.433594 C 586.082031 88.242188 586.113281 88.054688 586.167969 87.875 L 586.308594 87.304688 L 586.515625 86.652344 C 586.570312 86.46875 586.648438 86.289062 586.714844 86.097656 C 586.785156 85.902344 586.847656 85.734375 586.9375 85.570312 C 587.027344 85.402344 587.082031 85.246094 587.144531 85.078125 C 587.21875 84.949219 587.269531 84.816406 587.34375 84.6875 C 587.417969 84.554688 587.453125 84.460938 587.511719 84.367188 C 587.644531 84.140625 587.761719 83.929688 587.871094 83.703125 C 587.914062 83.621094 587.972656 83.550781 588.015625 83.464844 C 588.089844 83.359375 588.148438 83.242188 588.21875 83.136719 C 588.347656 82.960938 588.464844 82.796875 588.589844 82.625 L 589.007812 82.140625 C 589.160156 81.992188 589.308594 81.84375 589.449219 81.679688 C 589.503906 81.636719 589.570312 81.578125 589.636719 81.523438 C 589.746094 81.433594 589.828125 81.34375 589.9375 81.253906 C 590.085938 81.128906 590.257812 81.007812 590.40625 80.882812 L 591.042969 80.445312 C 591.203125 80.335938 591.386719 80.226562 591.554688 80.128906 C 591.726562 80.03125 591.953125 79.890625 592.136719 79.785156 C 592.214844 79.742188 592.292969 79.699219 592.371094 79.65625 C 592.488281 79.605469 592.605469 79.527344 592.722656 79.476562 L 593.292969 79.230469 C 593.523438 79.148438 593.746094 79.058594 593.960938 78.992188 C 594.089844 78.953125 594.21875 78.914062 594.34375 78.875 C 594.472656 78.835938 594.578125 78.796875 594.714844 78.773438 L 595.414062 78.625 L 596.210938 78.484375 C 596.410156 78.453125 596.597656 78.429688 596.800781 78.398438 C 597.203125 78.335938 597.605469 78.296875 598.007812 78.257812 C 598.332031 78.238281 598.660156 78.195312 598.996094 78.1875 C 599.332031 78.179688 599.695312 78.148438 600.058594 78.144531 C 600.28125 78.140625 600.492188 78.148438 600.714844 78.140625 C 600.851562 78.140625 601.003906 78.128906 601.125 78.140625 L 602.132812 78.167969 C 602.785156 78.214844 603.425781 78.273438 604.066406 78.332031 C 604.363281 78.355469 604.671875 78.398438 604.96875 78.421875 C 605.226562 78.460938 605.472656 78.480469 605.730469 78.515625 L 606.472656 78.808594 C 606.597656 78.816406 606.71875 78.828125 606.839844 78.863281 L 607.820312 79.050781 C 608.355469 79.148438 608.890625 79.296875 609.414062 79.429688 C 610.394531 79.707031 611.363281 79.964844 612.332031 80.277344 C 612.863281 80.449219 613.382812 80.605469 613.898438 80.789062 C 614.417969 80.972656 614.949219 81.144531 615.464844 81.351562 C 615.980469 81.5625 616.507812 81.757812 617.011719 81.976562 C 617.511719 82.195312 618.039062 82.417969 618.550781 82.648438 C 619.554688 83.113281 620.554688 83.574219 621.539062 84.074219 C 622.050781 84.332031 622.574219 84.578125 623.085938 84.832031 L 624.664062 85.660156 L 626.035156 86.429688 C 626.414062 86.636719 626.777344 86.855469 627.15625 87.085938 C 627.53125 87.320312 627.886719 87.527344 628.25 87.746094 C 628.6875 88.019531 629.109375 88.28125 629.542969 88.558594 L 630.972656 89.503906 C 631.324219 89.734375 631.675781 89.992188 632.035156 90.234375 C 632.398438 90.480469 632.761719 90.722656 633.101562 90.964844 C 633.4375 91.207031 633.847656 91.480469 634.222656 91.761719 L 635.128906 92.4375 C 635.292969 92.554688 635.457031 92.667969 635.59375 92.777344 L 636.417969 93.410156 C 636.605469 93.554688 636.777344 93.679688 636.953125 93.832031 L 637.714844 94.472656 C 637.886719 94.625 638.070312 94.765625 638.242188 94.917969 L 638.957031 95.554688 C 639.128906 95.707031 639.300781 95.859375 639.472656 96.011719 C 640.296875 96.78125 641.121094 97.550781 641.945312 98.34375 C 642.71875 99.109375 643.492188 99.875 644.277344 100.65625 C 644.960938 101.363281 645.652344 102.058594 646.308594 102.761719 C 646.648438 103.117188 646.953125 103.480469 647.292969 103.832031 C 647.585938 104.15625 647.867188 104.492188 648.15625 104.84375 C 648.347656 105.070312 648.527344 105.285156 648.714844 105.515625 C 648.839844 105.664062 648.972656 105.824219 649.082031 105.984375 L 649.71875 106.796875 C 649.871094 107.011719 650.027344 107.222656 650.191406 107.449219 C 650.832031 108.328125 651.46875 109.230469 652.097656 110.117188 C 652.6875 110.96875 653.269531 111.828125 653.835938 112.699219 C 654.128906 113.160156 654.421875 113.597656 654.714844 114.058594 C 654.988281 114.46875 655.25 114.863281 655.472656 115.292969 C 655.484375 115.308594 655.480469 115.332031 655.492188 115.34375 L 655.484375 115.308594 C 655.613281 115.792969 656.328125 115.582031 656.652344 115.425781 C 656.960938 115.214844 657.238281 115.003906 657.476562 114.738281 Z M 600.59375 111.378906 L 600.503906 111.410156 C 600.480469 111.433594 600.441406 111.441406 600.417969 111.4375 L 600.496094 111.394531 C 600.480469 111.40625 600.457031 111.40625 600.441406 111.417969 L 600.507812 111.386719 L 600.523438 111.375 L 600.507812 111.386719 C 600.53125 111.386719 600.558594 111.390625 600.59375 111.378906 Z M 585.839844 93.863281 L 586.601562 94.089844 C 587.085938 94.234375 587.554688 94.414062 588.03125 94.605469 C 588.464844 94.769531 588.871094 94.953125 589.289062 95.128906 C 589.515625 95.234375 589.753906 95.332031 589.96875 95.449219 L 590.644531 95.796875 L 591.378906 96.210938 C 591.636719 96.359375 591.882812 96.515625 592.140625 96.6875 C 592.398438 96.859375 592.609375 97.003906 592.832031 97.160156 C 593.03125 97.289062 593.203125 97.441406 593.390625 97.582031 C 593.808594 97.894531 594.226562 98.230469 594.617188 98.5625 C 594.835938 98.746094 595.054688 98.925781 595.261719 99.117188 L 595.890625 99.710938 L 596.210938 100.035156 C 596.300781 100.121094 596.378906 100.214844 596.472656 100.296875 C 596.6875 100.527344 596.890625 100.742188 597.089844 100.984375 C 597.496094 101.46875 597.894531 101.976562 598.257812 102.496094 C 598.640625 103.039062 599.003906 103.582031 599.359375 104.148438 C 599.53125 104.4375 599.707031 104.726562 599.878906 105.015625 C 600.007812 105.226562 600.097656 105.445312 600.214844 105.664062 L 600.359375 106.003906 C 600.410156 106.117188 600.460938 106.234375 600.511719 106.351562 L 600.664062 106.75 C 600.703125 106.851562 600.742188 106.957031 600.773438 107.046875 L 600.886719 107.429688 C 600.925781 107.53125 600.953125 107.621094 600.980469 107.734375 C 601.054688 108.015625 601.117188 108.28125 601.179688 108.574219 C 601.238281 109 601.261719 109.414062 601.234375 109.847656 C 601.214844 110.070312 601.167969 110.289062 601.125 110.507812 C 601.085938 110.628906 601.054688 110.726562 601.007812 110.832031 C 600.960938 110.941406 600.917969 111 600.871094 111.082031 C 600.855469 111.117188 600.816406 111.152344 600.785156 111.199219 C 600.757812 111.246094 600.742188 111.257812 600.714844 111.28125 L 600.675781 111.3125 L 600.636719 111.347656 C 600.621094 111.359375 600.585938 111.367188 600.570312 111.378906 L 600.519531 111.398438 L 600.378906 111.449219 C 600.339844 111.457031 600.289062 111.476562 600.226562 111.484375 C 600.164062 111.492188 600.125 111.5 600.0625 111.507812 C 599.9375 111.519531 599.800781 111.519531 599.664062 111.519531 C 599.085938 111.457031 598.511719 111.34375 597.953125 111.191406 L 597.238281 110.992188 C 597.117188 110.957031 597.019531 110.921875 596.914062 110.875 C 596.804688 110.828125 596.695312 110.808594 596.597656 110.773438 L 596.238281 110.617188 C 596.15625 110.574219 596.0625 110.539062 595.953125 110.492188 L 595.359375 110.191406 L 594.78125 109.851562 C 594.59375 109.734375 594.417969 109.609375 594.230469 109.492188 C 594.042969 109.375 593.914062 109.277344 593.75 109.164062 C 593.585938 109.050781 593.449219 108.9375 593.285156 108.824219 L 592.695312 108.335938 C 592.535156 108.195312 592.363281 108.042969 592.191406 107.890625 C 591.914062 107.644531 591.640625 107.371094 591.378906 107.109375 L 590.804688 106.476562 C 590.667969 106.3125 590.523438 106.140625 590.390625 105.976562 C 590.253906 105.816406 590.097656 105.628906 589.964844 105.441406 C 589.8125 105.230469 589.644531 105.027344 589.503906 104.804688 C 589.230469 104.394531 588.96875 103.972656 588.710938 103.554688 C 588.582031 103.34375 588.453125 103.132812 588.347656 102.925781 L 587.976562 102.230469 L 587.578125 101.425781 C 587.527344 101.308594 587.484375 101.207031 587.433594 101.089844 L 587.21875 100.585938 C 587.109375 100.3125 587.019531 100.046875 586.921875 99.789062 C 586.820312 99.53125 586.742188 99.273438 586.667969 99.019531 C 586.503906 98.496094 586.355469 97.960938 586.242188 97.441406 C 586.179688 97.148438 586.109375 96.867188 586.058594 96.589844 L 586.023438 95.617188 L 585.914062 94.800781 C 585.882812 94.597656 585.863281 94.386719 585.859375 94.1875 C 585.855469 94.074219 585.839844 93.972656 585.839844 93.863281 Z M 585.839844 93.863281"/></g></g></g><g clip-path="url(#k)"><path fill="#131313" d="M 134.417969 505.847656 C 134.179688 505.480469 133.789062 505.21875 133.355469 505.109375 C 133.332031 505.109375 133.3125 505.109375 133.289062 505.109375 L 133.246094 505.089844 C 133.160156 505.023438 133.050781 504.957031 132.941406 504.914062 L 132.726562 504.785156 C 132.617188 504.71875 132.507812 504.652344 132.402344 504.609375 C 132.164062 504.503906 131.945312 504.394531 131.707031 504.285156 C 131.1875 504.066406 130.667969 503.851562 130.144531 503.65625 C 129.105469 503.242188 128.019531 502.960938 126.957031 502.589844 C 126.523438 502.4375 126.070312 502.460938 125.65625 502.65625 C 124.8125 503.046875 124.464844 504.046875 124.855469 504.894531 C 125.050781 505.285156 125.375 505.609375 125.808594 505.761719 C 126.265625 505.914062 126.71875 506.066406 127.175781 506.195312 C 127.5 506.304688 127.847656 506.414062 128.171875 506.523438 C 126.808594 507.066406 125.441406 507.585938 124.074219 508.171875 C 123.292969 508.519531 122.515625 508.867188 121.710938 509.214844 C 120.972656 509.539062 120.238281 509.84375 119.5 510.148438 C 118.914062 510.367188 118.328125 510.605469 117.742188 510.824219 C 115.8125 511.539062 113.863281 512.191406 111.953125 512.90625 C 110.933594 513.277344 109.914062 513.644531 108.898438 514.015625 C 107.964844 514.339844 107.011719 514.667969 106.078125 515.015625 C 104.082031 515.773438 102.089844 516.578125 100.09375 517.316406 C 99.097656 517.683594 98.078125 518.054688 97.078125 518.421875 C 96.105469 518.792969 95.148438 519.183594 94.175781 519.554688 C 92.15625 520.335938 90.121094 521.007812 88.058594 521.679688 C 86 522.355469 84.003906 522.984375 81.988281 523.59375 C 79.992188 524.199219 78 524.765625 76.027344 525.394531 C 74.964844 525.742188 73.902344 526.089844 72.839844 526.460938 C 71.863281 526.785156 70.910156 527.109375 69.933594 527.457031 C 68.847656 527.828125 67.742188 528.195312 66.660156 528.589844 C 65.726562 528.914062 64.816406 529.28125 63.882812 529.628906 C 61.800781 530.433594 59.699219 531.214844 57.59375 531.996094 C 55.578125 532.757812 53.582031 533.5625 51.589844 534.320312 C 50.613281 534.691406 49.636719 535.039062 48.660156 535.40625 C 48.164062 535.601562 47.640625 535.796875 47.144531 536.015625 L 45.648438 536.644531 C 44.671875 537.058594 43.695312 537.472656 42.699219 537.863281 L 43.957031 536.90625 C 44.78125 536.277344 45.605469 535.667969 46.429688 535.039062 C 48.402344 533.605469 50.351562 532.148438 52.347656 530.714844 C 54.125 529.457031 55.882812 528.175781 57.660156 526.914062 C 59.460938 525.613281 61.28125 524.308594 63.101562 523.007812 C 64.921875 521.703125 66.722656 520.421875 68.523438 519.117188 C 70.234375 517.878906 71.90625 516.621094 73.597656 515.363281 C 74.636719 514.601562 75.679688 513.863281 76.699219 513.101562 L 76.609375 513.167969 L 78.0625 512.105469 C 78.800781 511.582031 79.539062 511.039062 80.273438 510.519531 L 82.746094 508.757812 C 83.636719 508.128906 84.503906 507.5 85.414062 506.914062 C 86.347656 506.304688 87.300781 505.695312 88.234375 505.089844 C 88.730469 504.785156 89.207031 504.457031 89.707031 504.132812 L 89.925781 504.023438 L 90.554688 503.675781 C 90.964844 503.4375 91.398438 503.242188 91.679688 502.828125 C 91.898438 502.527344 92.003906 502.15625 91.984375 501.765625 C 91.941406 501.09375 91.507812 500.507812 90.878906 500.289062 C 90.597656 500.179688 90.292969 500.160156 89.988281 500.222656 C 89.773438 500.265625 89.554688 500.332031 89.339844 500.441406 C 89.230469 500.507812 89.121094 500.570312 89.011719 500.636719 L 88.625 500.875 C 88.40625 501.003906 88.210938 501.136719 87.996094 501.289062 L 87.929688 501.332031 C 87.277344 501.679688 86.628906 502.027344 85.976562 502.332031 C 84.980469 502.808594 83.960938 503.285156 82.964844 503.742188 C 81.097656 504.609375 79.234375 505.523438 77.371094 506.414062 C 75.441406 507.324219 73.511719 508.238281 71.582031 509.171875 C 69.585938 510.171875 67.570312 511.148438 65.574219 512.148438 C 64.640625 512.601562 63.730469 513.101562 62.800781 513.601562 C 61.867188 514.101562 60.957031 514.578125 60.023438 515.058594 C 59.070312 515.558594 58.117188 516.054688 57.160156 516.578125 C 56.207031 517.097656 55.210938 517.664062 54.234375 518.207031 C 52.652344 519.074219 51.070312 519.945312 49.507812 520.878906 C 47.945312 521.8125 46.492188 522.59375 44.976562 523.484375 C 45.429688 523.09375 45.90625 522.703125 46.363281 522.3125 C 47.121094 521.660156 47.859375 521.007812 48.597656 520.378906 C 50.265625 518.945312 51.914062 517.511719 53.605469 516.101562 C 55.316406 514.644531 57.007812 513.210938 58.722656 511.757812 C 60.371094 510.367188 61.996094 508.953125 63.621094 507.566406 C 64.445312 506.871094 65.269531 506.175781 66.09375 505.480469 C 66.917969 504.785156 67.699219 504.066406 68.5 503.371094 C 69.304688 502.679688 70.105469 501.960938 70.910156 501.265625 C 71.710938 500.570312 72.492188 499.875 73.273438 499.160156 C 74.832031 497.769531 76.394531 496.359375 77.976562 494.988281 C 79.648438 493.554688 81.382812 492.1875 82.964844 490.644531 C 83.355469 490.253906 83.765625 489.886719 84.113281 489.472656 C 84.394531 489.167969 84.632812 488.820312 84.828125 488.472656 C 85.21875 487.734375 85.066406 486.84375 84.460938 486.28125 C 84.15625 486.019531 83.789062 485.867188 83.398438 485.824219 C 82.941406 485.824219 82.507812 485.910156 82.097656 486.085938 C 81.859375 486.171875 81.640625 486.238281 81.402344 486.324219 C 80.859375 486.542969 80.296875 486.757812 79.777344 487.019531 C 78.777344 487.476562 77.804688 487.996094 76.828125 488.496094 C 75.851562 488.996094 74.917969 489.472656 73.964844 489.972656 C 72.058594 490.949219 70.191406 491.992188 68.328125 493.035156 C 66.875 493.839844 65.421875 494.597656 63.96875 495.425781 C 62.515625 496.25 61.128906 497.03125 59.71875 497.835938 C 58.417969 498.550781 57.117188 499.269531 55.816406 500.007812 C 54.582031 500.703125 53.34375 501.417969 52.109375 502.113281 C 51.15625 502.65625 50.179688 503.175781 49.226562 503.71875 C 48.335938 504.21875 47.449219 504.742188 46.558594 505.242188 L 46.386719 505.328125 C 46.753906 504.894531 47.121094 504.457031 47.492188 504.023438 C 48.183594 503.222656 48.855469 502.4375 49.550781 501.636719 C 50.980469 499.941406 52.414062 498.226562 53.84375 496.511719 C 54.539062 495.683594 55.210938 494.859375 55.925781 494.035156 C 56.640625 493.207031 57.3125 492.40625 58.007812 491.578125 C 59.328125 490.039062 60.609375 488.453125 61.929688 486.886719 C 62.625 486.085938 63.320312 485.28125 64.011719 484.476562 L 65.183594 483.175781 C 65.550781 482.761719 65.921875 482.328125 66.289062 481.894531 L 66.875 481.132812 C 67.027344 480.9375 67.15625 480.742188 67.308594 480.546875 C 67.613281 480.132812 67.917969 479.699219 68.199219 479.265625 C 68.480469 478.832031 68.738281 478.417969 69 478.003906 C 69.21875 477.636719 69.457031 477.289062 69.714844 476.941406 C 69.953125 476.703125 70.128906 476.398438 70.191406 476.074219 C 70.386719 475.160156 69.800781 474.269531 68.890625 474.074219 C 68.609375 474.007812 68.304688 474.03125 68.003906 474.117188 C 67.699219 474.226562 67.4375 474.402344 67.242188 474.617188 C 67.046875 474.835938 66.875 475.050781 66.722656 475.3125 C 66.375 475.8125 66.074219 476.3125 65.746094 476.832031 C 65.574219 477.117188 65.378906 477.398438 65.207031 477.679688 C 65.054688 477.917969 64.902344 478.15625 64.730469 478.375 C 64.554688 478.59375 64.359375 478.917969 64.164062 479.15625 L 63.621094 479.828125 C 63.144531 480.394531 62.667969 480.9375 62.191406 481.480469 C 61.714844 482.023438 61.214844 482.566406 60.71875 483.152344 C 59.761719 484.21875 58.851562 485.324219 57.941406 486.410156 L 55.816406 488.972656 C 55.125 489.800781 54.429688 490.582031 53.734375 491.40625 C 53.042969 492.230469 52.324219 493.078125 51.632812 493.925781 C 51.046875 494.621094 50.394531 495.378906 49.746094 496.164062 C 48.378906 497.792969 47.011719 499.421875 45.625 501.050781 C 44.890625 501.894531 44.171875 502.765625 43.4375 503.632812 C 42.785156 504.414062 42.113281 505.175781 41.460938 505.9375 C 40.769531 506.761719 40.074219 507.585938 39.382812 508.433594 C 39.054688 508.824219 38.730469 509.238281 38.425781 509.628906 C 38.339844 509.757812 38.253906 509.867188 38.167969 509.996094 C 38.058594 510.148438 37.992188 510.300781 37.929688 510.476562 C 37.886719 510.648438 37.839844 510.800781 37.820312 510.972656 C 37.796875 511.191406 37.820312 511.410156 37.90625 511.625 C 38.101562 512.210938 38.578125 512.648438 39.1875 512.777344 C 39.597656 512.863281 40.011719 512.820312 40.398438 512.667969 C 40.703125 512.558594 40.984375 512.40625 41.269531 512.253906 C 41.460938 512.148438 41.65625 512.015625 41.851562 511.910156 C 42.285156 511.625 42.71875 511.34375 43.152344 511.082031 C 43.652344 510.777344 44.128906 510.453125 44.628906 510.171875 C 45.039062 509.933594 45.472656 509.691406 45.886719 509.453125 C 47.011719 508.847656 48.121094 508.214844 49.226562 507.585938 C 50.289062 506.976562 51.328125 506.371094 52.390625 505.785156 C 53.386719 505.21875 54.40625 504.675781 55.40625 504.109375 C 56.402344 503.546875 57.355469 502.980469 58.355469 502.4375 C 59.613281 501.742188 60.847656 501.070312 62.105469 500.375 C 63.296875 499.703125 64.488281 499.027344 65.703125 498.355469 C 67.546875 497.355469 69.390625 496.359375 71.210938 495.316406 C 72.382812 494.664062 73.554688 494.035156 74.746094 493.402344 C 73.359375 494.640625 71.949219 495.878906 70.5625 497.117188 C 68.976562 498.53125 67.375 499.898438 65.792969 501.308594 C 64.96875 502.027344 64.144531 502.742188 63.296875 503.460938 C 62.539062 504.109375 61.757812 504.761719 61 505.414062 C 59.308594 506.871094 57.617188 508.304688 55.902344 509.757812 C 54.234375 511.167969 52.566406 512.601562 50.894531 514.015625 C 49.3125 515.363281 47.75 516.6875 46.191406 518.054688 C 45.324219 518.816406 44.457031 519.554688 43.585938 520.3125 C 42.765625 521.007812 41.941406 521.703125 41.136719 522.398438 C 40.335938 523.09375 39.53125 523.808594 38.730469 524.503906 L 36.410156 526.566406 C 35.609375 527.285156 34.804688 528 34.046875 528.785156 C 33.679688 529.109375 33.398438 529.5 33.203125 529.933594 C 33.070312 530.324219 33.070312 530.761719 33.203125 531.152344 C 33.332031 531.519531 33.570312 531.847656 33.894531 532.0625 C 34.589844 532.5625 35.5 532.453125 36.257812 532.171875 C 36.691406 531.996094 37.125 531.824219 37.558594 531.605469 C 38.558594 531.128906 39.511719 530.585938 40.464844 530.066406 C 41.417969 529.542969 42.351562 529 43.285156 528.457031 C 44.214844 527.914062 45.128906 527.351562 46.058594 526.808594 C 46.992188 526.265625 47.902344 525.742188 48.8125 525.199219 C 49.722656 524.65625 50.632812 524.136719 51.566406 523.59375 C 52.542969 523.027344 53.496094 522.484375 54.472656 521.941406 C 56.011719 521.09375 57.550781 520.226562 59.070312 519.378906 C 59.828125 518.964844 60.609375 518.554688 61.367188 518.164062 C 62.125 517.773438 62.972656 517.316406 63.773438 516.902344 C 64.535156 516.492188 65.292969 516.101562 66.074219 515.6875 C 66.875 515.273438 67.675781 514.863281 68.480469 514.472656 C 69.28125 514.078125 70.085938 513.6875 70.886719 513.277344 L 68.589844 514.992188 C 66.59375 516.449219 64.597656 517.902344 62.582031 519.335938 C 60.804688 520.59375 59.027344 521.855469 57.246094 523.136719 C 55.535156 524.375 53.820312 525.589844 52.109375 526.808594 C 50.394531 528.023438 48.660156 529.261719 46.925781 530.519531 C 45.148438 531.824219 43.394531 533.128906 41.65625 534.453125 C 40.769531 535.148438 39.859375 535.820312 38.96875 536.492188 C 38.101562 537.144531 37.257812 537.796875 36.410156 538.492188 C 35.628906 539.144531 34.871094 539.839844 34.113281 540.53125 C 33.765625 540.859375 33.398438 541.183594 33.027344 541.511719 C 32.855469 541.664062 32.679688 541.816406 32.507812 541.988281 C 32.421875 542.074219 32.335938 542.160156 32.246094 542.226562 C 32.140625 542.359375 32.050781 542.488281 31.964844 542.640625 C 31.769531 542.988281 31.726562 543.378906 31.8125 543.769531 C 31.878906 544.117188 32.074219 544.441406 32.335938 544.703125 C 32.550781 544.898438 32.832031 545.050781 33.113281 545.117188 C 33.265625 545.136719 33.398438 545.160156 33.546875 545.160156 L 33.636719 545.160156 C 33.765625 545.136719 33.875 545.136719 34.003906 545.117188 C 34.15625 545.074219 34.308594 545.027344 34.480469 544.984375 C 34.675781 544.921875 34.847656 544.855469 35.042969 544.789062 C 35.433594 544.636719 35.804688 544.484375 36.195312 544.332031 C 36.84375 544.050781 37.496094 543.769531 38.144531 543.464844 C 40.074219 542.597656 41.984375 541.75 43.933594 540.96875 C 45.886719 540.1875 47.835938 539.339844 49.789062 538.535156 C 50.699219 538.1875 51.609375 537.863281 52.542969 537.515625 C 53.539062 537.144531 54.515625 536.777344 55.492188 536.386719 C 57.464844 535.601562 59.460938 534.863281 61.433594 534.105469 C 63.492188 533.324219 65.550781 532.539062 67.632812 531.757812 C 68.609375 531.390625 69.605469 531.0625 70.582031 530.738281 C 71.601562 530.390625 72.644531 530.019531 73.660156 529.675781 C 75.679688 529 77.695312 528.328125 79.734375 527.71875 C 81.769531 527.109375 83.851562 526.503906 85.890625 525.875 C 87.863281 525.242188 89.859375 524.636719 91.832031 523.941406 C 92.828125 523.59375 93.847656 523.246094 94.824219 522.855469 C 95.867188 522.441406 96.90625 522.050781 97.945312 521.636719 C 98.878906 521.289062 99.832031 520.941406 100.765625 520.59375 C 101.785156 520.226562 102.78125 519.835938 103.78125 519.445312 C 104.777344 519.054688 105.753906 518.664062 106.773438 518.292969 C 107.789062 517.925781 108.789062 517.554688 109.808594 517.207031 C 111.757812 516.535156 113.710938 515.773438 115.660156 515.101562 C 117.699219 514.382812 119.714844 513.667969 121.710938 512.84375 C 123.554688 512.082031 125.355469 511.234375 127.175781 510.476562 C 127.847656 510.214844 128.5 509.953125 129.171875 509.691406 L 128.648438 510.625 C 128.390625 511.082031 128.128906 511.539062 127.871094 511.972656 C 127.71875 512.234375 127.566406 512.472656 127.414062 512.734375 C 127.285156 512.929688 127.195312 513.125 127.152344 513.339844 C 127.003906 513.992188 127.261719 514.6875 127.824219 515.078125 C 128.109375 515.273438 128.453125 515.382812 128.800781 515.382812 C 128.910156 515.382812 128.996094 515.382812 129.105469 515.363281 C 129.539062 515.273438 129.90625 515.035156 130.167969 514.6875 C 130.449219 514.253906 130.710938 513.796875 130.992188 513.363281 C 131.554688 512.429688 132.054688 511.472656 132.597656 510.539062 C 132.898438 510.082031 133.183594 509.605469 133.484375 509.148438 C 133.636719 508.933594 133.789062 508.714844 133.917969 508.5 C 134.003906 508.367188 134.09375 508.238281 134.15625 508.109375 C 134.199219 508.019531 134.265625 507.933594 134.332031 507.847656 C 134.785156 507.28125 134.851562 506.480469 134.417969 505.847656 Z M 68.675781 477.332031 Z M 68.675781 477.332031"/></g></svg>